<?xml version="1.0" encoding="UTF-8"?>
<svg width="140" height="48" viewBox="0 0 140 48" fill="none" xmlns="http://www.w3.org/2000/svg">
  <path d="M16.5 10.5C16.5 8.01472 18.5147 6 21 6H27C29.4853 6 31.5 8.01472 31.5 10.5V37.5C31.5 39.9853 29.4853 42 27 42H21C18.5147 42 16.5 39.9853 16.5 37.5V10.5Z" fill="#F97316"/>
  <path d="M6 21C6 18.5147 8.01472 16.5 10.5 16.5H37.5C39.9853 16.5 42 18.5147 42 21V27C42 29.4853 39.9853 31.5 37.5 31.5H10.5C8.01472 31.5 6 29.4853 6 27V21Z" fill="#F97316"/>
  <path d="M54.832 15.64H58.352V33H54.832V15.64ZM70.2014 33.24C68.7214 33.24 67.3814 32.9 66.1814 32.22C64.9814 31.54 64.0414 30.58 63.3614 29.34C62.6814 28.08 62.3414 26.64 62.3414 25.02C62.3414 23.4 62.6814 21.97 63.3614 20.73C64.0414 19.49 64.9814 18.53 66.1814 17.85C67.3814 17.17 68.7214 16.83 70.2014 16.83C71.6814 16.83 73.0214 17.17 74.2214 17.85C75.4214 18.53 76.3614 19.49 77.0414 20.73C77.7214 21.97 78.0614 23.4 78.0614 25.02C78.0614 26.64 77.7214 28.08 77.0414 29.34C76.3614 30.58 75.4214 31.54 74.2214 32.22C73.0214 32.9 71.6814 33.24 70.2014 33.24ZM70.2014 30.18C71.3614 30.18 72.2814 29.75 72.9614 28.89C73.6414 28.03 73.9814 26.78 73.9814 25.14C73.9814 23.5 73.6414 22.25 72.9614 21.39C72.2814 20.53 71.3614 20.1 70.2014 20.1C69.0414 20.1 68.1214 20.53 67.4414 21.39C66.7614 22.25 66.4214 23.5 66.4214 25.14C66.4214 26.78 66.7614 28.03 67.4414 28.89C68.1214 29.75 69.0414 30.18 70.2014 30.18ZM89.6628 16.83C91.0228 16.83 92.2228 17.16 93.2628 17.82C94.3228 18.46 95.1428 19.39 95.7228 20.61C96.3028 21.83 96.5928 23.28 96.5928 24.96C96.5928 26.64 96.3028 28.1 95.7228 29.34C95.1428 30.56 94.3228 31.5 93.2628 32.16C92.2228 32.8 91.0228 33.12 89.6628 33.12C88.6028 33.12 87.6928 32.93 86.9328 32.55C86.1928 32.17 85.6128 31.65 85.1928 30.99V39.24H81.6728V17.07H85.0728V19.17C85.4928 18.49 86.0928 17.96 86.8728 17.58C87.6528 17.08 88.5828 16.83 89.6628 16.83ZM88.7028 30.03C89.8628 30.03 90.7628 29.62 91.4028 28.8C92.0628 27.96 92.3928 26.73 92.3928 25.11C92.3928 23.49 92.0628 22.27 91.4028 21.45C90.7628 20.61 89.8628 20.19 88.7028 20.19C87.5428 20.19 86.6428 20.6 86.0028 21.42C85.3628 22.24 85.0428 23.47 85.0428 25.11C85.0428 26.75 85.3628 27.98 86.0028 28.8C86.6428 29.62 87.5428 30.03 88.7028 30.03ZM108.643 16.83C110.123 16.83 111.463 17.17 112.663 17.85C113.863 18.53 114.803 19.49 115.483 20.73C116.163 21.97 116.503 23.4 116.503 25.02C116.503 26.64 116.163 28.08 115.483 29.34C114.803 30.58 113.863 31.54 112.663 32.22C111.463 32.9 110.123 33.24 108.643 33.24C107.163 33.24 105.823 32.9 104.623 32.22C103.423 31.54 102.483 30.58 101.803 29.34C101.123 28.08 100.783 26.64 100.783 25.02C100.783 23.4 101.123 21.97 101.803 20.73C102.483 19.49 103.423 18.53 104.623 17.85C105.823 17.17 107.163 16.83 108.643 16.83ZM108.643 20.1C107.483 20.1 106.563 20.53 105.883 21.39C105.203 22.25 104.863 23.5 104.863 25.14C104.863 26.78 105.203 28.03 105.883 28.89C106.563 29.75 107.483 30.18 108.643 30.18C109.803 30.18 110.723 29.75 111.403 28.89C112.083 28.03 112.423 26.78 112.423 25.14C112.423 23.5 112.083 22.25 111.403 21.39C110.723 20.53 109.803 20.1 108.643 20.1ZM132.065 17.07V33H128.665V30.6C128.265 31.36 127.665 31.95 126.865 32.37C126.085 32.79 125.175 33 124.135 33C122.935 33 121.875 32.74 120.955 32.22C120.035 31.7 119.315 30.95 118.795 29.97C118.275 28.99 118.015 27.84 118.015 26.52V17.07H121.535V25.86C121.535 27.14 121.845 28.12 122.465 28.8C123.085 29.46 123.945 29.79 125.045 29.79C126.165 29.79 127.035 29.46 127.655 28.8C128.295 28.12 128.615 27.14 128.615 25.86V17.07H132.065Z" fill="#F97316"/>
</svg>